<?xml version="1.0" encoding="UTF-8"?>
<!DOCTYPE svg PUBLIC "-//W3C//DTD SVG 1.1//EN" "http://www.w3.org/Graphics/SVG/1.1/DTD/svg11.dtd">
<svg xmlns="http://www.w3.org/2000/svg" version="1.1" width="461px" height="203px" style="shape-rendering:geometricPrecision; text-rendering:geometricPrecision; image-rendering:optimizeQuality; fill-rule:evenodd; clip-rule:evenodd" xmlns:xlink="http://www.w3.org/1999/xlink">
<g><path style="opacity:1" fill="#000000" d="M -0.5,-0.5 C 105.167,-0.5 210.833,-0.5 316.5,-0.5C 314.609,1.83574 314.109,4.5024 315,7.5C 323.254,13.0434 331.421,18.71 339.5,24.5C 340.408,23.21 340.241,21.8767 339,20.5C 332.806,13.3871 326.64,6.38707 320.5,-0.5C 367.167,-0.5 413.833,-0.5 460.5,-0.5C 460.5,67.1667 460.5,134.833 460.5,202.5C 306.833,202.5 153.167,202.5 -0.5,202.5C -0.5,145.5 -0.5,88.5 -0.5,31.5C 3.55461,31.1758 7.55461,31.5091 11.5,32.5C 23.409,62.3117 34.7423,92.3117 45.5,122.5C 47.288,122.785 48.9547,122.452 50.5,121.5C 52.9053,115.949 54.9053,110.283 56.5,104.5C 66.1291,80.7944 75.2958,56.7944 84,32.5C 88.1206,31.8612 92.2873,31.1945 96.5,30.5C 96.2907,29.914 95.9574,29.414 95.5,29C 86.1726,28.5002 76.8393,28.3335 67.5,28.5C 67.5,29.5 67.5,30.5 67.5,31.5C 72.1785,31.3342 76.8452,31.5008 81.5,32C 72.1419,55.7382 62.9752,79.5715 54,103.5C 53.7216,102.584 53.2216,101.918 52.5,101.5C 44.2366,78.3801 35.5699,55.3801 26.5,32.5C 31.1667,31.8333 35.8333,31.1667 40.5,30.5C 40.3333,30.1667 40.1667,29.8333 40,29.5C 26.5792,28.5103 13.0792,28.177 -0.5,28.5C -0.5,18.8333 -0.5,9.16667 -0.5,-0.5 Z"/></g>
<g><path style="opacity:1" fill="#d6d6d6" d="M 316.5,-0.5 C 317.833,-0.5 319.167,-0.5 320.5,-0.5C 326.64,6.38707 332.806,13.3871 339,20.5C 340.241,21.8767 340.408,23.21 339.5,24.5C 331.421,18.71 323.254,13.0434 315,7.5C 314.109,4.5024 314.609,1.83574 316.5,-0.5 Z"/></g>
<g><path style="opacity:1" fill="#cacaca" d="M -0.5,28.5 C 13.0792,28.177 26.5792,28.5103 40,29.5C 40.1667,29.8333 40.3333,30.1667 40.5,30.5C 35.8333,31.1667 31.1667,31.8333 26.5,32.5C 35.5699,55.3801 44.2366,78.3801 52.5,101.5C 52.2953,104.986 53.6286,105.986 56.5,104.5C 54.9053,110.283 52.9053,115.949 50.5,121.5C 48.9547,122.452 47.288,122.785 45.5,122.5C 34.7423,92.3117 23.409,62.3117 11.5,32.5C 7.55461,31.5091 3.55461,31.1758 -0.5,31.5C -0.5,30.5 -0.5,29.5 -0.5,28.5 Z"/></g>
<g><path style="opacity:1" fill="#c4c4c4" d="M 98.5,28.5 C 112.171,28.3334 125.837,28.5001 139.5,29C 139.957,29.414 140.291,29.914 140.5,30.5C 135.544,31.4941 130.544,31.8275 125.5,31.5C 125.5,60.5 125.5,89.5 125.5,118.5C 130.544,118.173 135.544,118.506 140.5,119.5C 126.167,120.833 111.833,120.833 97.5,119.5C 102.456,118.506 107.456,118.173 112.5,118.5C 112.5,89.5 112.5,60.5 112.5,31.5C 107.456,31.8275 102.456,31.4941 97.5,30.5C 97.8627,29.8165 98.1961,29.1499 98.5,28.5 Z"/></g>
<g><path style="opacity:1" fill="#c4c4c4" d="M 233.5,28.5 C 247.171,28.3334 260.837,28.5001 274.5,29C 274.957,29.414 275.291,29.914 275.5,30.5C 270.544,31.4941 265.544,31.8275 260.5,31.5C 260.5,60.5 260.5,89.5 260.5,118.5C 265.544,118.173 270.544,118.506 275.5,119.5C 261.167,120.833 246.833,120.833 232.5,119.5C 237.456,118.506 242.456,118.173 247.5,118.5C 247.5,89.5 247.5,60.5 247.5,31.5C 242.456,31.8275 237.456,31.4941 232.5,30.5C 232.863,29.8165 233.196,29.1499 233.5,28.5 Z"/></g>
<g><path style="opacity:1" fill="#000000" d="M 349.5,115.5 C 339.972,120.621 329.972,121.621 319.5,118.5C 311.523,114.25 306.69,107.584 305,98.5C 301.667,82.8333 301.667,67.1667 305,51.5C 310.048,34.0564 321.548,26.8897 339.5,30C 350.174,33.3422 356.674,40.5089 359,51.5C 362.563,68.5803 362.229,85.5803 358,102.5C 356.151,107.546 353.318,111.879 349.5,115.5 Z"/></g>
<g><path style="opacity:1" fill="#cfcfcf" d="M 178.5,26.5 C 187.114,26.029 195.281,27.6956 203,31.5C 205.175,31.1661 207.008,30.1661 208.5,28.5C 209.833,36.5 209.833,44.5 208.5,52.5C 206.156,44.9783 202.156,38.4783 196.5,33C 185.478,27.4856 175.312,28.6523 166,36.5C 160.254,48.8385 163.754,57.3385 176.5,62C 188.652,65.1602 200.319,69.4936 211.5,75C 218.092,81.8855 220.259,90.0522 218,99.5C 214.427,111.406 206.594,118.906 194.5,122C 182.726,123.337 171.226,122.171 160,118.5C 157.51,119.336 155.01,120.002 152.5,120.5C 152.5,111.167 152.5,101.833 152.5,92.5C 153.5,92.5 154.5,92.5 155.5,92.5C 161.017,118.26 176.017,126.093 200.5,116C 209.75,106.806 210.417,97.1392 202.5,87C 199.661,85.0797 196.661,83.4131 193.5,82C 184.332,79.4592 175.332,76.4592 166.5,73C 156.554,66.8464 153.054,58.013 156,46.5C 159.642,35.3508 167.142,28.6841 178.5,26.5 Z"/></g>
<g><path style="opacity:1" fill="#cdcdcd" d="M 350.5,117.5 C 348.302,117.591 347.969,116.925 349.5,115.5C 353.318,111.879 356.151,107.546 358,102.5C 362.229,85.5803 362.563,68.5803 359,51.5C 356.674,40.5089 350.174,33.3422 339.5,30C 321.548,26.8897 310.048,34.0564 305,51.5C 301.667,67.1667 301.667,82.8333 305,98.5C 306.69,107.584 311.523,114.25 319.5,118.5C 318.791,119.404 317.791,119.737 316.5,119.5C 300.624,113.115 291.124,101.449 288,84.5C 284.915,58.6134 295.082,40.1134 318.5,29C 348.135,23.5787 367.302,35.4121 376,64.5C 379.225,84.5439 373.058,101.044 357.5,114C 355.423,115.705 353.09,116.872 350.5,117.5 Z"/></g>
<g><path style="opacity:1" fill="#e2e2e2" d="M 56.5,104.5 C 53.6286,105.986 52.2953,104.986 52.5,101.5C 53.2216,101.918 53.7216,102.584 54,103.5C 62.9752,79.5715 72.1419,55.7382 81.5,32C 76.8452,31.5008 72.1785,31.3342 67.5,31.5C 67.5,30.5 67.5,29.5 67.5,28.5C 76.8393,28.3335 86.1726,28.5002 95.5,29C 95.9574,29.414 96.2907,29.914 96.5,30.5C 92.2873,31.1945 88.1206,31.8612 84,32.5C 75.2958,56.7944 66.1291,80.7944 56.5,104.5 Z"/></g>
<g><path style="opacity:1" fill="#f7f7f7" d="M 349.5,115.5 C 347.969,116.925 348.302,117.591 350.5,117.5C 347.563,119.656 344.229,121.156 340.5,122C 334.833,122.667 329.167,122.667 323.5,122C 320.896,121.61 318.562,120.776 316.5,119.5C 317.791,119.737 318.791,119.404 319.5,118.5C 329.972,121.621 339.972,120.621 349.5,115.5 Z"/></g>
</svg>
