<?xml version="1.0"?>
<svg version="1.1" xmlns="http://www.w3.org/2000/svg" width="400" height="200" style=""><path fill="#d68b2f" d="M15,86.3623046875q0-0.478515625,0.66650390625-0.73486328125t0.87158203125-0.25634765625l1.2646484375-0.205078125q1.2646484375-0.205078125,2.5634765625-0.35888671875t2.529296875-0.29052734375q4.3408203125-0.546875,8.681640625-1.07666015625t8.75-0.52978515625q0.341796875,0,0.93994140625,0.0341796875t1.1962890625,0.18798828125t1.025390625,0.42724609375t0.42724609375,0.751953125q0,0.341796875-0.32470703125,0.59814453125t-0.76904296875,0.39306640625t-0.90576171875,0.1708984375t-0.73486328125,0.0341796875l-0.59814453125,0t-0.59814453125-0.13671875q-1.8115234375,0-3.57177734375,0.1708984375t-3.57177734375,0.3076171875q0.478515625,0.546875,0.5126953125,1.5380859375t0.068359375,1.708984375q0,12.099609375,0.1708984375,24.0625t0.3076171875,24.1650390625l0,0.068359375q-1.1279296875,0.9912109375-1.93115234375,1.2646484375t-1.62353515625,0.2734375q-0.7861328125,0-1.58935546875-0.29052734375t-1.93115234375-1.24755859375l0-0.068359375l0.2734375-26.8310546875q0-2.666015625-0.068359375-5.87890625t-0.068359375-6.51123046875t0.1025390625-6.37451171875t0.546875-5.3662109375q-2.0166015625,0.205078125-4.2724609375,0.615234375q-1.9482421875,0.341796875-3.7255859375,0.341796875l-0.615234375,0q-0.13671875,0-0.80322265625,0.0341796875t-1.3671875-0.0341796875t-1.2646484375-0.2734375t-0.56396484375-0.68359375z M47.391064453125,119.2431640625q0-0.68359375,0.15380859375-1.8115234375t0.35888671875-2.23876953125t0.478515625-2.06787109375t0.6494140625-1.23046875q0.2734375-0.2734375,0.93994140625-0.546875t1.4013671875-0.39306640625t1.3671875,0.1025390625t0.76904296875,0.90576171875q-0.478515625,0.615234375-0.87158203125,2.10205078125t-0.59814453125,3.29833984375q-0.1708984375,1.5380859375-0.1708984375,3.1787109375l0,0.5810546875q0.0341796875,1.9140625,0.341796875,3.5205078125t0.93994140625,2.64892578125t1.76025390625,1.04248046875q2.392578125,0,4.375-2.20458984375t3.5205078125-5.38330078125t2.7001953125-6.75048828125t1.982421875-6.23779296875q0.205078125-0.7861328125,0.97412109375-1.0595703125t1.65771484375-0.18798828125t1.58935546875,0.42724609375t0.83740234375,0.8203125q-0.68359375,5.7421875-1.07666015625,11.484375t-0.39306640625,11.552734375q0,1.1279296875,0.1025390625,2.06787109375t-0.1025390625,1.6064453125t-0.90576171875,1.0595703125t-2.23876953125,0.39306640625q-0.341796875,0-0.87158203125-0.068359375t-1.09375-0.22216796875t-0.95703125-0.46142578125t-0.39306640625-0.7177734375q0-2.529296875,0.18798828125-5.1953125t0.52978515625-5.1611328125q-0.9228515625,1.3330078125-2.03369140625,2.64892578125t-2.44384765625,2.37548828125t-2.87109375,1.69189453125t-3.3154296875,0.63232421875q-2.529296875,0-3.98193359375-1.1962890625t-2.1875-2.99072265625t-0.9228515625-3.91357421875t-0.18798828125-4.1015625z M78.14150390625,100.546875q0-0.478515625,1.025390625-0.8203125t2.32421875-0.56396484375t2.51220703125-0.32470703125t1.65771484375-0.1708984375q0-0.9228515625,0.068359375-1.86279296875t0.3759765625-1.6748046875t0.97412109375-1.17919921875t1.86279296875-0.4443359375q0.9912109375,0,1.50390625,0.2392578125t1.09375,0.9912109375q0.13671875,0.41015625,0.13671875,0.7861328125l0,1.14501953125t-0.068359375,1.17919921875q1.2646484375-0.13671875,2.51220703125-0.32470703125t2.51220703125-0.18798828125q0.9228515625,0,1.2646484375,0.0341796875t0.68359375,0.8203125q0.2734375,0.7861328125-0.66650390625,1.1962890625t-2.255859375,0.615234375t-2.61474609375,0.3076171875t-1.572265625,0.1025390625q-0.41015625,5.87890625-0.83740234375,11.6552734375t-0.42724609375,11.7236328125q0,2.666015625,0.1708984375,5.5029296875t0.95703125,5.3662109375q0.205078125,0.7861328125,0.68359375,1.4697265625t0.478515625,1.4697265625q0,0.478515625-0.3759765625,0.751953125t-0.90576171875,0.46142578125t-1.0595703125,0.22216796875t-0.87158203125,0.0341796875q-2.1533203125,0-3.28125-1.6064453125t-1.62353515625-3.84521484375t-0.52978515625-4.59716796875t-0.0341796875-3.828125q0-3.0078125,0.11962890625-6.15234375t0.29052734375-6.220703125t0.478515625-6.015625t0.7177734375-5.46875q-1.1962890625,0.13671875-2.34130859375,0.3076171875t-2.34130859375,0.1708984375q-0.2734375,0-0.73486328125-0.0341796875t-0.87158203125-0.1708984375t-0.70068359375-0.3759765625t-0.29052734375-0.68359375z M104.27768554688,121.4306640625q0-3.14453125,0.73486328125-6.16943359375t1.24755859375-6.03271484375q0.13671875-0.7861328125,1.07666015625-0.97412109375t1.58935546875-0.18798828125q1.1279296875,0,1.8115234375,0.341796875q0.2734375,0.13671875,0.5126953125,0.3076171875t0.2392578125,0.4443359375q0,2.939453125-0.70068359375,5.7421875t-0.70068359375,5.947265625q0,1.0595703125,0.15380859375,1.99951171875t0.29052734375,1.86279296875l0.205078125,0.9912109375q0,0.2734375,0.0341796875,0.478515625t0.1025390625,0.478515625q0,0.615234375-0.87158203125,0.83740234375t-1.52099609375,0.22216796875q-0.9912109375,0-1.82861328125-0.39306640625t-1.31591796875-1.35009765625l-0.478515625-0.9912109375q-0.41015625-0.7861328125-0.41015625-1.76025390625t-0.1708984375-1.79443359375z M106.46518554688,100.8544921875l0-0.6494140625q0-1.6064453125,0.80322265625-2.87109375t2.40966796875-1.2646484375q0.205078125,0,0.39306640625,0.0341796875t0.39306640625,0.0341796875q0.41015625,0.068359375,1.07666015625,0.32470703125t0.66650390625,0.80322265625l0,0.068359375q-0.13671875,0.2734375-0.1708984375,0.56396484375t-0.1708984375,0.49560546875l0.068359375-0.068359375q-0.41015625,1.0595703125-0.66650390625,1.708984375t-0.56396484375,1.04248046875t-0.76904296875,0.56396484375t-1.31591796875,0.1708984375q-0.13671875,0-0.478515625-0.0341796875t-0.73486328125-0.13671875t-0.66650390625-0.2734375t-0.2734375-0.5126953125z M118.5193359375,122.900390625q0-1.9482421875,0.49560546875-4.01611328125t1.572265625-3.7255859375t2.71728515625-2.7001953125t3.96484375-1.04248046875q1.7431640625,0,3.67431640625,0.59814453125t3.53759765625,1.708984375t2.61474609375,2.71728515625t1.00830078125,3.5888671875q0,2.392578125-0.87158203125,4.5458984375t-2.44384765625,3.84521484375t-3.67431640625,2.666015625t-4.56298828125,0.97412109375q-2.0166015625,0-3.5205078125-0.73486328125t-2.51220703125-1.96533203125t-1.50390625-2.9052734375t-0.49560546875-3.5546875z M123.54375,122.83203125q0,0.615234375,0.18798828125,1.8115234375t0.56396484375,2.34130859375t0.97412109375,1.982421875t1.45263671875,0.76904296875q1.8115234375-0.205078125,2.99072265625-1.17919921875t1.9140625-2.37548828125t1.025390625-3.0419921875t0.29052734375-3.1103515625q0-1.8798828125-0.73486328125-3.14453125t-2.40966796875-2.05078125q0,0.068359375,0.068359375,0.068359375t0.068359375-0.068359375l-0.8544921875-0.205078125q-0.341796875-0.13671875-0.83740234375-0.3076171875t-0.97412109375-0.751953125q-1.3330078125,0.478515625-2.06787109375,1.23046875t-1.11083984375,1.82861328125t-0.46142578125,2.58056640625t-0.08544921875,3.623046875z M144.45043945312,122.421875l0-0.9912109375q0-1.23046875,0.068359375-2.32421875q0.068359375-1.5380859375,0.068359375-2.529296875q0-0.546875,0.068359375-1.24755859375t0.341796875-1.11083984375q0.341796875-0.341796875,0.80322265625-0.70068359375t1.00830078125-0.35888671875q1.7431640625,0,2.734375,0.39306640625t1.0595703125,1.62353515625l0.13671875,1.0595703125q0.615234375-1.4697265625,1.640625-3.64013671875t2.37548828125-4.1357421875t3.0419921875-3.349609375t3.57177734375-1.38427734375q1.7431640625,0,2.87109375,1.640625t1.79443359375,4.18701171875t0.93994140625,5.673828125t0.3759765625,6.13525390625t0.13671875,5.48583984375t0.2392578125,3.74267578125q0.13671875,1.0595703125,0.46142578125,2.23876953125t0.32470703125,2.17041015625q0,0.2734375-0.39306640625,0.52978515625t-0.83740234375,0.42724609375t-0.90576171875,0.2734375t-0.66650390625,0.1025390625q-1.3330078125,0-1.89697265625-1.99951171875t-0.70068359375-5.00732421875t-0.13671875-6.51123046875t-0.2392578125-6.51123046875t-0.97412109375-5.00732421875t-2.34130859375-2.06787109375q-1.4697265625,0-3.0419921875,1.89697265625t-2.7001953125,5.04150390625q-1.09375,3.14453125-1.50390625,7.1435546875q-0.13671875,1.2646484375-0.13671875,2.529296875q0,2.7685546875,0.5810546875,5.537109375q0.068359375,0.478515625-0.39306640625,0.7177734375t-1.14501953125,0.3759765625t-1.38427734375,0.1708984375t-1.07666015625,0.0341796875q-1.3330078125,0-2.13623046875-0.93994140625t-1.24755859375-2.40966796875t-0.59814453125-3.29833984375t-0.18798828125-3.60595703125z M188.82729492188,87.3193359375q0-0.546875,0.39306640625-0.90576171875t0.9228515625-0.56396484375t1.162109375-0.2734375t1.11083984375-0.068359375q0.9912109375,0,2.10205078125,0.2734375t1.65771484375,1.1962890625q0.9912109375,1.6748046875,1.45263671875,3.98193359375t0.87158203125,4.42626953125q0.615234375,2.939453125,1.572265625,6.15234375t1.99951171875,6.54541015625t2.13623046875,6.54541015625t1.9140625,6.015625q0.9912109375-4.1357421875,1.82861328125-8.4765625t1.6064453125-8.681640625t1.6064453125-8.681640625t1.82861328125-8.5107421875q0.205078125-0.9912109375,0.3076171875-2.4951171875t0.42724609375-2.9052734375t0.93994140625-2.40966796875t1.8798828125-1.00830078125q1.3330078125,0,1.79443359375,0.73486328125t0.46142578125,2.13623046875q-0.341796875,3.8623046875-1.11083984375,7.65625t-1.41845703125,7.587890625q-0.9228515625,4.6826171875-1.99951171875,9.38232421875t-2.0166015625,9.41650390625t-1.6064453125,9.45068359375t-0.80322265625,9.48486328125q0.068359375,0.205078125,0.205078125,0.478515625t0.13671875,0.41015625q0,0.41015625-0.3759765625,0.76904296875t-0.93994140625,0.615234375t-1.23046875,0.39306640625t-1.24755859375,0.13671875q-0.546875,0-1.24755859375-0.068359375t-1.4013671875-0.25634765625t-1.23046875-0.49560546875t-0.66650390625-0.7861328125q-0.546875-1.6064453125-1.00830078125-3.12744140625t-0.87158203125-3.12744140625q-1.9482421875-7.0068359375-4.08447265625-13.75732421875t-3.94775390625-13.72314453125q-0.8544921875-3.14453125-1.28173828125-6.16943359375t-1.38427734375-5.96435546875q0.13671875,0.2734375,0.13671875,0.4443359375q-0.13671875-0.478515625-0.2734375-0.90576171875t-0.3076171875-0.93994140625q0,0.13671875,0.0341796875,0.1708984375t0.0341796875,0.1025390625q0-0.068359375-0.0341796875-0.1025390625t-0.0341796875-0.1025390625z M225.7984375,123.65234375q0-2.392578125,0.52978515625-5.6396484375t1.79443359375-6.15234375t3.33251953125-4.93896484375t5.21240234375-2.03369140625q2.939453125,0,4.4091796875,1.69189453125t1.4697265625,4.56298828125q0,1.8798828125-0.70068359375,4.11865234375t-1.99951171875,4.23828125t-3.076171875,3.33251953125t-3.96484375,1.3330078125l-0.888671875-0.068359375q0,0.9228515625,0.2734375,2.47802734375t0.80322265625,3.09326171875t1.3671875,2.7001953125t2.03369140625,1.162109375q1.7431640625,0,3.349609375-1.4013671875t3.0419921875-3.1103515625t2.666015625-3.1103515625t2.255859375-1.4013671875q0.546875,0,1.1279296875,0.1708984375t0.6494140625,0.95703125q0,0.478515625-0.25634765625,0.7861328125t-0.46142578125,0.68359375q-1.0595703125,1.8115234375-2.30712890625,3.4521484375t-2.81982421875,2.9736328125t-3.43505859375,2.10205078125t-4.11865234375,0.76904296875q-2.939453125,0-4.8876953125-1.04248046875t-3.14453125-2.802734375t-1.72607421875-4.0673828125t-0.52978515625-4.83642578125z M231.9166015625,121.0546875l0.95703125,0.8544921875q0.68359375,0.615234375,1.3671875,0.2734375t1.23046875-1.24755859375t1.00830078125-2.23876953125t0.8203125-2.734375t0.52978515625-2.734375t0.1708984375-2.2216796875l0-1.162109375t-0.1025390625-1.23046875t-0.35888671875-0.97412109375t-0.80322265625-0.49560546875q-0.1708984375-0.0341796875-0.3076171875-0.0341796875q-1.162109375,0-1.982421875,1.4697265625q-0.888671875,1.640625-1.435546875,3.98193359375t-0.7861328125,4.80224609375t-0.3076171875,3.69140625z M254.36137695313,112.6806640625q0-1.4013671875,0.49560546875-2.3583984375t2.10205078125-0.95703125q0.615234375,0,1.5380859375,0.18798828125t1.0595703125,0.93994140625q0.341796875,2.0166015625,0.3759765625,4.375t0.2392578125,4.443359375q0.7861328125-1.5380859375,2.0166015625-3.3154296875t2.802734375-3.28125t3.41796875-2.4951171875t3.759765625-0.9912109375q0.13671875,0,0.5126953125,0.1025390625t0.70068359375,0.29052734375t0.39306640625,0.42724609375t-0.3759765625,0.4443359375q-0.13671875,0.41015625-0.5810546875,0.49560546875t-0.7861328125,0.08544921875q-0.205078125,0-0.6494140625-0.1708984375q-2.529296875,1.3330078125-4.306640625,3.623046875t-2.9052734375,5.07568359375t-1.640625,5.87890625t-0.5126953125,6.03271484375q0,1.4697265625-0.66650390625,1.77734375t-2.13623046875,0.3076171875q-0.7861328125,0-1.65771484375-0.1708984375t-1.21337890625-1.09375q-0.615234375-1.9482421875-1.00830078125-4.4775390625t-0.59814453125-5.21240234375t-0.29052734375-5.28076171875t-0.08544921875-4.6826171875z M278.65185546875,113.4326171875q0-1.4013671875,0.8203125-2.40966796875t1.99951171875-1.640625t2.58056640625-0.93994140625t2.59765625-0.3076171875q0.9228515625,0,2.4609375,0.2734375t3.0078125,0.8203125t2.54638671875,1.435546875t1.07666015625,2.0849609375q0,0.546875-0.41015625,0.97412109375t-0.8544921875,0.42724609375q-0.9228515625,0-1.6748046875-0.59814453125t-1.55517578125-1.2646484375t-1.76025390625-1.2646484375t-2.1533203125-0.59814453125t-2.17041015625,0.76904296875t-0.97412109375,2.03369140625q0,2.0849609375,1.4697265625,4.08447265625t3.22998046875,4.2041015625t3.22998046875,4.63134765625t1.4697265625,5.3662109375q0,1.2646484375-0.52978515625,2.13623046875t-1.4013671875,1.41845703125t-1.96533203125,0.83740234375t-2.119140625,0.29052734375q-1.1279296875,0-2.6318359375-0.52978515625t-2.8369140625-1.4013671875t-2.23876953125-2.03369140625t-0.90576171875-2.4267578125q0-0.615234375,0.87158203125-0.7861328125t1.28173828125-0.1708984375q0.205078125,0,0.63232421875,0.13671875t0.83740234375,0.3076171875t0.73486328125,0.3759765625t0.25634765625,0.4443359375q0.341796875,0.41015625,1.04248046875,1.21337890625t1.4013671875,1.298828125t1.23046875,0.35888671875t0.52978515625-1.5380859375q0-2.666015625-1.435546875-4.90478515625t-3.12744140625-4.375t-3.12744140625-4.23828125t-1.435546875-4.49462890625z M302.73725585938,123.65234375q0-2.392578125,0.52978515625-5.6396484375t1.79443359375-6.15234375t3.33251953125-4.93896484375t5.21240234375-2.03369140625q2.939453125,0,4.4091796875,1.69189453125t1.4697265625,4.56298828125q0,1.8798828125-0.70068359375,4.11865234375t-1.99951171875,4.23828125t-3.076171875,3.33251953125t-3.96484375,1.3330078125l-0.888671875-0.068359375q0,0.9228515625,0.2734375,2.47802734375t0.80322265625,3.09326171875t1.3671875,2.7001953125t2.03369140625,1.162109375q1.7431640625,0,3.349609375-1.4013671875t3.0419921875-3.1103515625t2.666015625-3.1103515625t2.255859375-1.4013671875q0.546875,0,1.1279296875,0.1708984375t0.6494140625,0.95703125q0,0.478515625-0.25634765625,0.7861328125t-0.46142578125,0.68359375q-1.0595703125,1.8115234375-2.30712890625,3.4521484375t-2.81982421875,2.9736328125t-3.43505859375,2.10205078125t-4.11865234375,0.76904296875q-2.939453125,0-4.8876953125-1.04248046875t-3.14453125-2.802734375t-1.72607421875-4.0673828125t-0.52978515625-4.83642578125z M308.85541992188,121.0546875l0.95703125,0.8544921875q0.68359375,0.615234375,1.3671875,0.2734375t1.23046875-1.24755859375t1.00830078125-2.23876953125t0.8203125-2.734375t0.52978515625-2.734375t0.1708984375-2.2216796875l0-1.162109375t-0.1025390625-1.23046875t-0.35888671875-0.97412109375t-0.80322265625-0.49560546875q-0.1708984375-0.0341796875-0.3076171875-0.0341796875q-1.162109375,0-1.982421875,1.4697265625q-0.888671875,1.640625-1.435546875,3.98193359375t-0.7861328125,4.80224609375t-0.3076171875,3.69140625z"/><path fill="#" d=""/></svg>
